<svg xmlns="http://www.w3.org/2000/svg" viewBox="0 0 120 120" fill="none">
  <!-- 背景圆形 -->
  <circle cx="60" cy="60" r="58" fill="#4f8a76" opacity="0.1"/>
  
  <!-- 书本底座 -->
  <path d="M30 70 L30 90 C30 92 31 93 33 93 L87 93 C89 93 90 92 90 90 L90 70 Z" 
        fill="#4f8a76" opacity="0.3"/>
  
  <!-- 书本页面 -->
  <path d="M35 35 L35 75 C35 77 36 78 38 78 L82 78 C84 78 85 77 85 75 L85 35 C85 33 84 32 82 32 L38 32 C36 32 35 33 35 35 Z" 
        fill="#ffffff" stroke="#4f8a76" stroke-width="2"/>
  
  <!-- 页面纹理线条 -->
  <line x1="45" y1="45" x2="75" y2="45" stroke="#4f8a76" stroke-width="1.5" opacity="0.4"/>
  <line x1="45" y1="52" x2="70" y2="52" stroke="#4f8a76" stroke-width="1.5" opacity="0.4"/>
  <line x1="45" y1="59" x2="75" y2="59" stroke="#4f8a76" stroke-width="1.5" opacity="0.4"/>
  <line x1="45" y1="66" x2="65" y2="66" stroke="#4f8a76" stroke-width="1.5" opacity="0.4"/>
  
  <!-- 羽毛笔 -->
  <path d="M70 25 Q75 30 72 40 L70 50 L68 50 L66 40 Q63 30 68 25 Q69 23 70 25 Z" 
        fill="#d4af37" stroke="#c5a028" stroke-width="1"/>
  
  <!-- 笔尖 -->
  <path d="M69 50 L70 58 L71 50 Z" fill="#2f2b26"/>
  
  <!-- 装饰星星 -->
  <circle cx="50" cy="25" r="1.5" fill="#d4af37" opacity="0.6"/>
  <circle cx="82" cy="50" r="1.5" fill="#d4af37" opacity="0.6"/>
  <circle cx="38" cy="85" r="1.5" fill="#d4af37" opacity="0.6"/>
</svg>
